<svg width="400" height="475" viewBox="0 0 400 475" fill="none" xmlns="http://www.w3.org/2000/svg">
<path d="M199.54 158.08C199.54 189.61 179.9 219.24 141.95 225.78L195.42 288.68L200.77 281.54L297.03 145.54V88H141.35C179.9 94.55 199.54 125.96 199.54 158.08Z" fill="#E4B21B"/>
<path d="M226.9 300.03L296.98 201.39V308.39H221.55L226.9 300.03ZM90.19 196.75H127.55C154.32 196.75 167.89 177.12 167.89 158.2C167.89 139.28 154.8 119.68 127.55 119.68H76.55V307.88H169.83L89.6 211.5V196.68H90.19V196.75Z" fill="#2E3168"/>
<path d="M100.3 332.15H88.42V387.36H100.31L100.3 332.15Z" fill="#2E3168"/>
<path d="M125.29 365.35C123.05 365.293 120.843 364.789 118.8 363.869C116.757 362.948 114.917 361.63 113.39 359.99C110.107 356.888 108.184 352.614 108.04 348.1C108.094 345.86 108.595 343.653 109.514 341.61C110.433 339.566 111.751 337.727 113.39 336.2C116.493 332.911 120.771 330.984 125.29 330.84H187.64V342.74H125.29C124.026 342.866 122.807 343.272 121.72 343.93C120.53 345.12 120.53 345.72 120.53 347.5C120.53 349.28 121.13 349.88 121.72 351.07C122.91 352.26 123.5 352.26 125.29 352.26H170.42C172.66 352.314 174.866 352.815 176.91 353.734C178.953 354.653 180.793 355.97 182.32 357.61C185.609 360.712 187.536 364.991 187.68 369.51C187.68 374.27 185.89 377.84 182.32 381.41C179.215 384.694 174.937 386.617 170.42 386.76H108.04V374.87H170.42C171.684 374.744 172.903 374.337 173.99 373.68C175.18 372.49 175.18 371.89 175.18 370.11C175.059 368.845 174.652 367.624 173.99 366.54C172.8 365.35 172.21 365.35 170.42 365.35H125.29Z" fill="#2E3168"/>
<path d="M221.54 332.15H272.59V344.05H221.54C217.419 344.159 213.448 345.621 210.24 348.21C207.24 351.21 206.08 354.76 206.08 359.52C206.188 363.641 207.65 367.612 210.24 370.82C213.24 373.82 216.79 374.98 221.54 374.98H272.59V386.88H221.54C213.81 386.88 207.86 383.88 201.91 378.55C199.262 376.015 197.157 372.967 195.725 369.592C194.293 366.217 193.563 362.586 193.58 358.92C193.58 351.19 196.58 345.24 201.91 339.29C207.27 334.53 213.22 332.15 221.54 332.15Z" fill="#2E3168"/>
<path d="M79.48 386.76L63.42 364.75C67.58 364.16 71.15 362.97 74.13 359.4C77.4124 356.294 79.3352 352.017 79.48 347.5C79.4247 345.26 78.923 343.054 78.0043 341.011C77.0857 338.967 75.7685 337.128 74.13 335.6C71.0237 332.318 66.7469 330.395 62.23 330.25H0V385.45H11.9V363.45H48.78L64.85 385.45L79.48 386.76ZM12.42 343.45H62.82C64.0973 343.584 65.3279 344.004 66.42 344.68C67.61 345.87 67.61 346.47 67.61 348.25C67.4829 349.501 67.0762 350.707 66.42 351.78C65.23 352.97 64.64 352.97 62.85 352.97H12.42V343.45Z" fill="#2E3168"/>
<path d="M332.56 387.36L300.42 332.15H314.1L339.68 376.06L365.27 332.15H378.95L346.82 387.36H332.56Z" fill="#E4B21B"/>
<path d="M303.52 354.04H280.32V364.75H303.52V354.04Z" fill="#E4B21B"/>
<path d="M399.66 338.46C399.664 339.304 399.501 340.141 399.179 340.921C398.858 341.702 398.385 342.412 397.788 343.008C397.192 343.605 396.482 344.078 395.702 344.399C394.921 344.721 394.084 344.884 393.24 344.88C391.521 344.893 389.867 344.225 388.64 343.022C387.412 341.819 386.711 340.179 386.69 338.46C386.703 337.615 386.883 336.78 387.22 336.005C387.556 335.23 388.043 334.529 388.652 333.942C389.261 333.356 389.98 332.895 390.767 332.588C391.554 332.28 392.395 332.131 393.24 332.15C394.078 332.134 394.911 332.285 395.69 332.596C396.469 332.906 397.178 333.368 397.776 333.956C398.374 334.543 398.849 335.245 399.172 336.018C399.496 336.791 399.661 337.622 399.66 338.46ZM388.24 338.46C388.21 339.114 388.314 339.768 388.547 340.381C388.78 340.993 389.136 341.551 389.594 342.02C390.052 342.489 390.601 342.858 391.207 343.106C391.814 343.354 392.465 343.474 393.12 343.46C393.763 343.451 394.398 343.314 394.987 343.056C395.576 342.799 396.108 342.426 396.551 341.961C396.995 341.495 397.341 340.946 397.569 340.344C397.797 339.743 397.903 339.103 397.88 338.46C397.911 337.8 397.808 337.14 397.577 336.52C397.346 335.901 396.991 335.335 396.535 334.856C396.079 334.378 395.531 333.996 394.923 333.736C394.315 333.475 393.661 333.341 393 333.34C390.14 333.34 388.24 335.6 388.24 338.46ZM392.16 341.79H390.74V335.48C391.524 335.325 392.321 335.248 393.12 335.25C393.864 335.188 394.61 335.351 395.26 335.72C395.469 335.891 395.632 336.111 395.735 336.361C395.838 336.61 395.878 336.881 395.85 337.15C395.85 337.86 395.26 338.34 394.54 338.58V338.68C394.851 338.82 395.123 339.034 395.331 339.305C395.538 339.575 395.675 339.893 395.73 340.23C395.838 340.761 395.999 341.28 396.21 341.78H394.66C394.384 341.307 394.223 340.776 394.19 340.23C394.07 339.52 393.71 339.28 392.88 339.28H392.16V341.79ZM392.16 338.22H392.88C393.71 338.22 394.31 337.98 394.31 337.27C394.31 336.56 393.83 336.27 393 336.27C392.714 336.242 392.426 336.283 392.16 336.39V338.22Z" fill="#2E3168"/>
</svg>
